# xmcd
#
# Track frame offsets: 
#        150
#        13570
#        36472
#        51580
#        63690
#        80716
#        94464
#        109794
#        121753
#        134310
#        148193
#        159334
#        174679
#        186848
#        206775
#        219906
#        231450
#        247077
#        270645
#        285728
#        309248
#
# Disc length: 4290 seconds
#
# Revision: 1
# Processed by: cddbd v1.5.2PL0 Copyright (c) Steve Scherf et al.
# Submitted via: ExactAudioCopy v1.0b3
#
DISCID=4810c015
DTITLE=Various Artist - The Blues and Salvation [CD2]
DYEAR=2014
DGENRE=Blues
TTITLE0=Rev. Gary Davis - I Didn`t Want To Join The Band
TTITLE1=Rev. Gary Davis - When The Moon Goes Down
TTITLE2=Jemima James - I Got Him Now
TTITLE3=Louisiana Red - Tell Me Who
TTITLE4=Rev. Gary Davis - Jesus Met The Woman At The Well
TTITLE5=Jemima James - Rolling Into Town
TTITLE6=George Higgs - Honey Good Honey
TTITLE7=Deneen McEachern - There`s Nothing Left To Sa
TTITLE8=Rev. Gary Davis - Steal Away And Pray
TTITLE9=Jemima James - No Matter What You Do
TTITLE10=Rev. Gary Davis - Let Us Get Together
TTITLE11=Louisiana Red - Mayor Beame
TTITLE12=Bob Malenky and Sonny Terry - One Woman Man
TTITLE13=George Higgs and Jemima James - Shoes By The Door
TTITLE14=Rev. Gary Davis - I Feel Like My Time Is...
TTITLE15=Rev. Gary Davis - Can`t Make This Journey By Myself
TTITLE16=Jemima James - You`ve Cotten Over Me
TTITLE17=Rev. Gary Davis - You Got To Move
TTITLE18=Jemima James - Another Skin
TTITLE19=Rev. Gary Davis - Lost John
TTITLE20=Rev. Gary Davis - Lost John ( Instrumental )
EXTD=YEAR: 2014
EXTT0=
EXTT1=
EXTT2=
EXTT3=
EXTT4=
EXTT5=
EXTT6=
EXTT7=
EXTT8=
EXTT9=
EXTT10=
EXTT11=
EXTT12=
EXTT13=
EXTT14=
EXTT15=
EXTT16=
EXTT17=
EXTT18=
EXTT19=
EXTT20=
PLAYORDER=
